<svg width="257" height="37" viewBox="0 0 257 37" fill="none" xmlns="http://www.w3.org/2000/svg">
<path d="M16.48 0.479997C18.6133 0.319998 19.6667 0.239998 19.64 0.239998C19.88 0.239998 20.04 0.333331 20.12 0.519997C20.1467 0.626664 19.1867 4.6 17.24 12.44C15.24 20.3867 14.24 24.44 14.24 24.6C14.1333 25.16 14.1467 25.6267 14.28 26C14.44 26.4267 14.7467 26.6133 15.2 26.56C15.52 26.5333 15.8533 26.28 16.2 25.8C16.5733 25.24 16.96 24.2 17.36 22.68C17.4667 22.2267 17.5867 21.9733 17.72 21.92C17.8 21.8933 18.0533 21.88 18.48 21.88C18.9867 21.88 19.2667 21.9067 19.32 21.96C19.48 22.0667 19.48 22.3733 19.32 22.88C18.6267 25.36 17.7333 27 16.64 27.8C16.2133 28.12 15.7867 28.32 15.36 28.4C14.8 28.48 14.2 28.44 13.56 28.28C12.36 28.0133 11.5067 27.3867 11 26.4L10.88 26.12L10.64 26.32C8.53333 28.1333 6.45333 28.7733 4.4 28.24C3.81333 28.08 3.26667 27.84 2.76 27.52C1.24 26.4533 0.373334 24.8667 0.160001 22.76C0.0800008 21.8 0.146667 20.76 0.360001 19.64C0.760001 17.9067 1.46667 16.3467 2.48 14.96C4.10667 12.6667 6.13333 11.2 8.56 10.56C9.01333 10.4267 9.57333 10.36 10.24 10.36C10.7467 10.36 11.12 10.3867 11.36 10.44C12.08 10.6267 12.7333 11.0133 13.32 11.6L13.64 11.92L13.68 11.76C13.68 11.8133 14.0133 10.5067 14.68 7.84C15.4 4.96 15.7067 3.44 15.6 3.28C15.44 3.04 14.76 2.92 13.56 2.92C13.08 2.92 12.8 2.82666 12.72 2.64C12.6933 2.50666 12.7467 2.2 12.88 1.72C12.9867 1.21333 13.0933 0.906663 13.2 0.799998C13.28 0.719997 13.36 0.679997 13.44 0.679997C13.68 0.679997 14.6933 0.61333 16.48 0.479997ZM10.8 12.32C10.2667 12.1867 9.82667 12.16 9.48 12.24C8.65333 12.4 7.85333 12.8667 7.08 13.64C6.30667 14.4667 5.62667 15.9333 5.04 18.04C4.90667 18.52 4.76 19.08 4.6 19.72C4.14667 21.5333 3.92 22.88 3.92 23.76C3.92 24.5867 4.09333 25.24 4.44 25.72C5.08 26.5733 6.04 26.7867 7.32 26.36C8.41333 25.9867 9.46667 25.1467 10.48 23.84L10.76 23.48L12.84 15.08L12.76 14.76C12.3867 13.4533 11.7333 12.64 10.8 12.32Z" fill="url(#paint0_linear_1_4)"/>
<path d="M31.4213 10.36H33.0213C34.9413 10.6533 36.1679 11.5333 36.7013 13C36.8613 13.5333 36.8879 14.08 36.7812 14.64C36.3279 16.6933 34.8479 18.04 32.3413 18.68C31.2213 19 29.3679 19.2 26.7813 19.28H25.5013L25.4213 19.52C25.3146 19.9733 25.1813 20.6667 25.0213 21.6C24.9146 22.4533 24.9146 23.2133 25.0213 23.88C25.1813 24.6533 25.5146 25.28 26.0213 25.76C26.6346 26.32 27.4613 26.5867 28.5013 26.56C30.6346 26.4267 32.4346 25.8133 33.9013 24.72C34.4079 24.4 34.8346 24.0133 35.1813 23.56C35.4746 23.2133 35.7146 23.1067 35.9013 23.24C35.9813 23.2933 36.1279 23.4267 36.3413 23.64C36.7146 24.04 36.8879 24.2933 36.8613 24.4C36.8346 24.5333 36.5413 24.88 35.9813 25.44C34.3013 27.04 32.1413 28 29.5013 28.32C28.5946 28.48 27.7946 28.5067 27.1013 28.4C24.5946 28.1333 22.8479 26.8667 21.8612 24.6C21.6746 24.2 21.5279 23.7733 21.4213 23.32C21.2346 22.6533 21.1413 21.8133 21.1413 20.8C21.1679 19.2267 21.5146 17.7867 22.1813 16.48C22.6613 15.4933 23.3146 14.5867 24.1413 13.76C24.5413 13.3867 25.0346 12.9733 25.6213 12.52C27.2479 11.32 29.0079 10.6133 30.9013 10.4C31.0346 10.3733 31.2079 10.36 31.4213 10.36ZM32.5013 12.24C31.5146 12.0533 30.4746 12.24 29.3813 12.8C27.8079 13.52 26.7146 14.9067 26.1013 16.96C26.0479 17.1733 26.0079 17.2933 25.9813 17.32C25.9813 17.3733 26.4213 17.4 27.3013 17.4C29.0346 17.3733 30.3413 17.2533 31.2213 17.04C33.0346 16.6667 34.1013 15.8933 34.4213 14.72C34.5279 14.2933 34.5146 13.92 34.3813 13.6C34.1413 12.9067 33.5146 12.4533 32.5013 12.24Z" fill="url(#paint1_linear_1_4)"/>
<path d="M43.2141 10.36C43.6941 10.3067 44.2407 10.32 44.8541 10.4C46.1341 10.6933 47.0407 11.3333 47.5741 12.32L47.7341 12.64L48.0941 12.32C49.1874 11.3333 50.3874 10.6933 51.6941 10.4C52.4674 10.2933 53.1874 10.3067 53.8541 10.44C54.9741 10.68 55.9074 11.1733 56.6541 11.92C57.3207 12.5867 57.8007 13.4 58.0941 14.36C58.5474 15.6933 58.6141 17.1467 58.2941 18.72C57.7607 21.6267 56.3874 24.04 54.1741 25.96C53.7741 26.3067 53.3741 26.6133 52.9741 26.88C52.1474 27.4133 51.3741 27.8 50.6541 28.04C49.9074 28.28 49.1741 28.4 48.4541 28.4C47.9207 28.4 47.6007 28.3867 47.4941 28.36C46.5341 28.1467 45.7741 27.72 45.2141 27.08C45.0541 26.92 44.9741 26.8533 44.9741 26.88L43.3741 33.28C43.3741 33.36 43.4141 33.4 43.4941 33.4C43.7341 33.48 44.3741 33.52 45.4141 33.52C45.9207 33.52 46.2007 33.5467 46.2541 33.6C46.4141 33.6533 46.4941 33.7733 46.4941 33.96L46.0941 35.52C45.9874 35.68 45.7341 35.7467 45.3341 35.72C45.2274 35.72 45.0274 35.72 44.7341 35.72C41.3474 35.6133 38.8541 35.6267 37.2541 35.76H36.9341L36.8141 35.64C36.7074 35.5333 36.6541 35.44 36.6541 35.36L37.0541 33.8V33.76C37.2407 33.6 37.6141 33.52 38.1741 33.52C38.9474 33.4933 39.4007 33.4133 39.5341 33.28C39.6141 33.2 40.4274 30.08 41.9741 23.92C43.5207 17.7333 44.3207 14.4933 44.3741 14.2C44.5607 12.92 44.3074 12.2533 43.6141 12.2C43.5341 12.2 43.4541 12.2 43.3741 12.2C42.5741 12.36 41.8674 13.6667 41.2541 16.12C41.1474 16.44 41.0941 16.6133 41.0941 16.64C40.8007 16.8 40.4807 16.88 40.1341 16.88H39.3741L39.2541 16.76C39.1474 16.6533 39.1474 16.3733 39.2541 15.92C39.7607 14.0533 40.3874 12.6533 41.1341 11.72C41.7207 11 42.4141 10.5467 43.2141 10.36ZM53.1341 12.32C52.7607 12.1867 52.3207 12.1733 51.8141 12.28C50.5874 12.4933 49.3874 13.3333 48.2141 14.8L47.8541 15.24L46.8141 19.44C46.1207 22.24 45.7741 23.6533 45.7741 23.68C45.7741 23.9467 45.9474 24.4267 46.2941 25.12C46.5874 25.6267 46.9874 26.0133 47.4941 26.28C48.6941 26.8933 49.9474 26.5867 51.2541 25.36C52.1341 24.56 52.8674 23.1733 53.4541 21.2C53.9074 19.4933 54.2274 18.1467 54.4141 17.16C54.7607 15.56 54.7874 14.3867 54.4941 13.64C54.2274 12.9733 53.7741 12.5333 53.1341 12.32Z" fill="url(#paint2_linear_1_4)"/>
<path d="M65.6913 0.479997C67.8779 0.319998 68.9446 0.239998 68.8913 0.239998C69.1313 0.239998 69.2913 0.333331 69.3713 0.519997C69.3979 0.626664 68.4379 4.6 66.4912 12.44L63.4913 24.52C63.4646 24.6267 63.4513 24.8533 63.4513 25.2C63.4513 25.8933 63.6113 26.32 63.9313 26.48C64.6246 26.7733 65.2246 26.36 65.7313 25.24C65.9446 24.84 66.2113 24.04 66.5312 22.84C66.6913 22.28 66.8246 21.9733 66.9313 21.92C66.9846 21.8933 67.2379 21.88 67.6913 21.88C68.1979 21.88 68.4913 21.9067 68.5713 21.96C68.6246 22.0133 68.6513 22.12 68.6513 22.28C68.6513 22.6267 68.4513 23.3467 68.0513 24.44C67.6246 25.4533 67.2646 26.1867 66.9713 26.64C66.3579 27.52 65.6512 28.08 64.8512 28.32C64.6646 28.3733 64.3713 28.4 63.9713 28.4C63.3313 28.4 62.7979 28.32 62.3713 28.16C61.0379 27.68 60.2246 26.7867 59.9313 25.48C59.8246 24.8667 59.8246 24.3467 59.9313 23.92C59.9313 23.9467 60.7579 20.5733 62.4113 13.8C64.1179 6.97333 64.9179 3.45333 64.8112 3.24C64.6246 3.05333 64.0513 2.94666 63.0913 2.92H62.2513L62.0913 2.76C61.9846 2.65333 61.9979 2.30666 62.1313 1.72C62.2913 1.10666 62.4246 0.773331 62.5312 0.719996C62.5579 0.719996 63.6113 0.639997 65.6913 0.479997Z" fill="url(#paint3_linear_1_4)"/>
<path d="M81.7653 10.4C82.6986 10.2667 83.6186 10.3067 84.5253 10.52C86.6053 10.9733 88.0987 12.1333 89.0053 14C90.072 16.1333 90.0186 18.52 88.8453 21.16C88.632 21.64 88.392 22.1067 88.1253 22.56C86.6053 25.0933 84.4986 26.8533 81.8053 27.84C81.112 28.08 80.4053 28.2533 79.6853 28.36C79.1253 28.4667 78.4186 28.48 77.5653 28.4C77.4853 28.3733 77.4186 28.36 77.3653 28.36C75.8453 28.12 74.5653 27.5067 73.5253 26.52C72.6453 25.6133 72.072 24.5467 71.8053 23.32C71.2453 20.92 71.7786 18.4533 73.4053 15.92C74.3653 14.4267 75.5653 13.2 77.0053 12.24C78.5786 11.1733 80.1653 10.56 81.7653 10.4ZM83.1253 12.24C82.0853 12.1067 81.0853 12.3067 80.1253 12.84C78.6053 13.6667 77.4986 15.08 76.8053 17.08C76.352 18.3067 75.992 19.6533 75.7253 21.12C75.2453 23.4933 75.5786 25.1067 76.7253 25.96C76.8053 26.0133 76.8853 26.0667 76.9653 26.12C77.312 26.3333 77.6853 26.4533 78.0853 26.48C79.552 26.7467 80.952 26.3067 82.2853 25.16C82.5786 24.92 82.8453 24.6533 83.0853 24.36C83.8853 23.4 84.5386 21.8933 85.0453 19.84C85.0986 19.7067 85.1386 19.56 85.1653 19.4C85.592 17.72 85.8053 16.4667 85.8053 15.64C85.8053 14.9733 85.7253 14.4533 85.5653 14.08C85.352 13.4933 84.952 13.0267 84.3653 12.68C84.0186 12.44 83.6053 12.2933 83.1253 12.24Z" fill="url(#paint4_linear_1_4)"/>
<path d="M95.4994 10.4C96.0327 10.2667 96.6594 10.28 97.3794 10.44C98.7394 10.8133 99.606 11.6267 99.9794 12.88C100.086 13.3333 100.086 13.9067 99.9794 14.6C99.926 14.7867 99.726 15.3333 99.3794 16.24C98.4194 18.8267 97.7927 20.8133 97.4994 22.2C97.206 23.9867 97.366 25.2267 97.9794 25.92C98.4327 26.4533 99.0727 26.6533 99.8994 26.52C101.099 26.36 102.153 25.64 103.059 24.36L103.299 24L104.739 18.12C105.753 14.1467 106.299 12.0933 106.379 11.96C106.806 11.1867 107.446 10.7867 108.299 10.76C108.726 10.76 109.086 10.88 109.379 11.12C109.513 11.1733 109.633 11.32 109.739 11.56C109.873 11.8267 109.899 12.16 109.819 12.56C109.739 12.96 109.099 15.5867 107.899 20.44C106.406 26.2533 105.686 29.0667 105.739 28.88C105.473 29.7333 105.073 30.52 104.539 31.24C103.046 33.5067 101.073 35.0267 98.6194 35.8C97.446 36.2 96.2994 36.32 95.1794 36.16C93.1794 35.8667 91.926 34.96 91.4194 33.44C91.3127 32.8533 91.326 32.3067 91.4594 31.8C91.6194 31.1333 91.9527 30.6 92.4594 30.2C93.4194 29.5067 94.326 29.3733 95.1794 29.8C95.4994 29.9867 95.7394 30.24 95.8994 30.56C96.1927 31.2 96.1394 31.8933 95.7394 32.64C95.4727 33.1467 95.1127 33.52 94.6594 33.76L94.4194 33.92L94.6194 34C95.6594 34.4533 96.7527 34.4533 97.8994 34C99.3394 33.4133 100.539 32.12 101.499 30.12C101.686 29.6933 101.859 29.2667 102.019 28.84C102.339 27.9067 102.473 27.4267 102.419 27.4C102.393 27.4 102.299 27.4533 102.139 27.56C101.739 27.8 101.313 28 100.859 28.16C99.3927 28.6667 97.886 28.5733 96.3394 27.88C95.966 27.72 95.6327 27.52 95.3394 27.28C94.1394 26.32 93.6194 24.8533 93.7794 22.88C93.886 21.5733 94.5127 19.3733 95.6594 16.28C95.686 16.1733 95.7127 16.08 95.7394 16C96.1127 15.0667 96.3127 14.5067 96.3394 14.32C96.6594 13.4133 96.6994 12.7867 96.4594 12.44C96.3527 12.28 96.1394 12.2 95.8194 12.2C94.6727 12.3067 93.726 13.28 92.9794 15.12C92.846 15.44 92.726 15.7867 92.6194 16.16C92.486 16.5867 92.3794 16.8133 92.2994 16.84C92.2727 16.8667 91.9927 16.88 91.4594 16.88H90.7394L90.6194 16.76C90.486 16.6533 90.4994 16.3733 90.6594 15.92C91.166 14.2133 91.9394 12.8667 92.9794 11.88C93.726 11.1067 94.566 10.6133 95.4994 10.4Z" fill="url(#paint5_linear_1_4)"/>
<path d="M110.949 7.92C111.135 7.81333 111.309 7.8 111.469 7.88C111.815 8.01333 114.615 9.58666 119.869 12.6C125.309 15.7733 128.122 17.4533 128.309 17.64C128.362 17.6933 128.389 17.8133 128.389 18C128.389 18.2133 128.335 18.36 128.229 18.44C127.962 18.6533 125.175 20.3067 119.869 23.4C114.402 26.5467 111.535 28.1467 111.269 28.2C111.215 28.2 111.109 28.16 110.949 28.08C110.789 28.0267 110.682 27.92 110.629 27.76L110.509 27.56V8.44L110.629 8.24C110.682 8.08 110.789 7.97333 110.949 7.92ZM119.069 14L112.149 10C112.122 10 112.109 12.6667 112.109 18C112.109 23.3333 112.122 26 112.149 26L125.949 18L119.069 14Z" fill="url(#paint6_linear_1_4)"/>
<path d="M134.189 10.36C134.669 10.3067 135.215 10.32 135.829 10.4C137.349 10.7467 138.335 11.5733 138.789 12.88L138.869 13.12L139.309 12.72C139.815 12.2133 140.282 11.8267 140.709 11.56C142.042 10.7067 143.509 10.2933 145.109 10.32C146.629 10.4 147.789 10.8267 148.589 11.6C149.015 12 149.349 12.5467 149.589 13.24L149.629 13.48L150.149 12.96C150.682 12.3733 151.229 11.9067 151.789 11.56C153.122 10.7067 154.589 10.2933 156.189 10.32C157.709 10.4 158.869 10.8267 159.669 11.6C160.709 12.6133 161.069 14.0933 160.749 16.04C160.482 17.5867 159.749 19.9333 158.549 23.08C158.095 24.3333 157.869 25.2133 157.869 25.72C157.869 26.2533 158.042 26.5333 158.389 26.56C158.442 26.56 158.509 26.56 158.589 26.56C159.149 26.5067 159.669 26.2267 160.149 25.72C160.922 24.9467 161.482 23.8933 161.829 22.56C161.962 22.16 162.095 21.9467 162.229 21.92C162.309 21.8933 162.549 21.88 162.949 21.88C163.455 21.88 163.749 21.9067 163.829 21.96C163.882 22.0133 163.909 22.12 163.909 22.28C163.909 22.8667 163.535 23.8267 162.789 25.16C162.709 25.2933 162.629 25.4267 162.549 25.56C161.669 26.92 160.615 27.8133 159.389 28.24C158.295 28.5867 157.229 28.4933 156.189 27.96C155.815 27.7733 155.535 27.5733 155.349 27.36C155.109 27.12 154.922 26.8667 154.789 26.6C154.522 26.0933 154.402 25.56 154.429 25C154.429 24.44 154.589 23.72 154.909 22.84C156.615 18.3067 157.389 15.3733 157.229 14.04C157.149 13.2667 156.895 12.7467 156.469 12.48C156.175 12.24 155.655 12.16 154.909 12.24C152.935 12.48 151.242 13.76 149.829 16.08L149.589 16.52L148.269 21.72C147.442 25.1333 146.962 26.96 146.829 27.2C146.455 28 145.829 28.4133 144.949 28.44C144.522 28.44 144.149 28.32 143.829 28.08C143.695 28.0267 143.575 27.88 143.469 27.64C143.335 27.3467 143.335 26.9067 143.469 26.32C143.575 25.7867 143.962 24.1733 144.629 21.48C145.535 17.9067 146.002 16.04 146.029 15.88C146.242 14.7867 146.229 13.9333 145.989 13.32C145.775 12.5733 145.255 12.2 144.429 12.2C142.189 12.2 140.295 13.4933 138.749 16.08L138.509 16.52L137.189 21.72C136.362 25.1333 135.882 26.96 135.749 27.2C135.375 28 134.749 28.4133 133.869 28.44C133.442 28.44 133.069 28.32 132.749 28.08C132.615 28.0267 132.495 27.88 132.389 27.64C132.255 27.3733 132.242 26.9733 132.349 26.44C132.482 25.8267 132.949 23.9067 133.749 20.68C134.789 16.5467 135.322 14.4 135.349 14.24C135.535 12.9333 135.282 12.2533 134.589 12.2C134.509 12.2 134.429 12.2 134.349 12.2C133.575 12.36 132.882 13.6 132.269 15.92L132.069 16.64C131.775 16.8 131.455 16.88 131.109 16.88H130.349L130.229 16.76C130.122 16.6533 130.122 16.3733 130.229 15.92C130.762 14.08 131.389 12.6933 132.109 11.76C132.669 11.04 133.362 10.5733 134.189 10.36Z" fill="url(#paint7_linear_1_4)"/>
<path d="M175.226 10.36C175.253 10.3333 175.493 10.32 175.946 10.32C176.426 10.3733 176.759 10.4133 176.946 10.44C177.826 10.7067 178.546 11.16 179.106 11.8L179.306 12.08L179.586 11.8C180.306 11.1333 181.053 10.9467 181.826 11.24C182.226 11.3733 182.493 11.6267 182.626 12C182.733 12.32 182.666 12.9867 182.426 14C182.266 14.6933 181.893 16.2 181.306 18.52C180.373 22.1733 179.879 24.1867 179.826 24.56C179.719 25.1467 179.733 25.6267 179.866 26C180.026 26.4267 180.333 26.6133 180.786 26.56C181.106 26.5333 181.439 26.28 181.786 25.8C182.159 25.24 182.546 24.2 182.946 22.68C183.053 22.2267 183.173 21.9733 183.306 21.92C183.386 21.8933 183.639 21.88 184.066 21.88C184.573 21.88 184.853 21.9067 184.906 21.96C185.066 22.0667 185.066 22.3733 184.906 22.88C184.213 25.36 183.319 27 182.226 27.8C181.799 28.12 181.373 28.32 180.946 28.4C180.386 28.48 179.786 28.44 179.146 28.28C177.946 28.0133 177.093 27.3867 176.586 26.4L176.466 26.12L176.226 26.32C174.119 28.1333 172.039 28.7733 169.986 28.24C169.399 28.08 168.853 27.84 168.346 27.52C166.826 26.4533 165.959 24.8667 165.746 22.76C165.639 22.04 165.653 21.2667 165.786 20.44C166.133 18.2 167.053 16.1467 168.546 14.28C169.053 13.6667 169.613 13.1067 170.226 12.6C171.746 11.3467 173.279 10.6133 174.826 10.4C174.933 10.3733 175.066 10.36 175.226 10.36ZM176.386 12.32C175.853 12.1867 175.413 12.16 175.066 12.24C174.239 12.4 173.439 12.8667 172.666 13.64C171.893 14.4667 171.213 15.9333 170.626 18.04C170.493 18.52 170.346 19.08 170.186 19.72C169.733 21.5333 169.506 22.88 169.506 23.76C169.506 24.5867 169.679 25.24 170.026 25.72C170.533 26.3867 171.239 26.6533 172.146 26.52C173.159 26.4133 174.199 25.8267 175.266 24.76C175.746 24.28 176.106 23.84 176.346 23.44C176.346 23.52 176.706 22.12 177.426 19.24L178.426 15.12L178.386 14.84C178.039 13.5067 177.373 12.6667 176.386 12.32Z" fill="url(#paint8_linear_1_4)"/>
<path d="M190.478 10.36C190.958 10.3067 191.504 10.32 192.118 10.4C193.371 10.6933 194.264 11.3067 194.798 12.24L194.918 12.44L195.158 12.16C195.718 11.6 196.304 11.1733 196.918 10.88C197.611 10.5333 198.384 10.36 199.238 10.36C199.718 10.36 200.051 10.3867 200.238 10.44C200.718 10.5733 201.184 10.8 201.638 11.12C202.544 11.8667 202.944 12.88 202.838 14.16C202.838 14.24 202.838 14.3067 202.838 14.36C202.678 15.6667 202.118 16.5467 201.158 17C200.411 17.3467 199.704 17.3733 199.038 17.08C198.264 16.7067 197.971 16.0267 198.158 15.04C198.264 14.5067 198.518 14.0133 198.918 13.56C199.264 13.24 199.651 13.0133 200.078 12.88L200.358 12.76L200.238 12.64C199.624 12.1333 198.851 12.0533 197.918 12.4C196.984 12.7733 196.131 13.64 195.358 15L195.038 15.48L193.638 21.2C192.651 25.04 192.118 27.04 192.038 27.2C191.664 28 191.038 28.4133 190.158 28.44C189.731 28.44 189.358 28.32 189.038 28.08C188.904 28.0267 188.784 27.88 188.678 27.64C188.544 27.3733 188.531 26.9733 188.638 26.44C188.771 25.8267 189.238 23.9067 190.038 20.68C191.078 16.5467 191.611 14.4 191.638 14.24C191.824 12.9333 191.571 12.2533 190.878 12.2C190.798 12.2 190.718 12.2 190.638 12.2C189.838 12.36 189.131 13.6667 188.518 16.12C188.411 16.44 188.358 16.6133 188.358 16.64C188.064 16.8 187.744 16.88 187.398 16.88H186.638L186.518 16.76C186.411 16.6533 186.411 16.3733 186.518 15.92C187.024 14.0533 187.651 12.6533 188.398 11.72C188.984 11 189.678 10.5467 190.478 10.36Z" fill="url(#paint9_linear_1_4)"/>
<path d="M212.165 0.479997C214.298 0.319998 215.338 0.239998 215.285 0.239998C215.525 0.239998 215.685 0.333331 215.765 0.519997C215.791 0.626664 215.138 3.37333 213.805 8.76L211.765 16.84L211.965 16.72C212.711 16.2667 213.791 15.3733 215.205 14.04C216.085 13.1867 216.791 12.5333 217.325 12.08C218.791 10.8533 220.191 10.2667 221.525 10.32C221.951 10.3467 222.298 10.44 222.565 10.6C223.125 10.8933 223.511 11.4267 223.725 12.2C223.885 12.84 223.911 13.5733 223.805 14.4C223.565 15.68 222.991 16.5467 222.085 17C221.338 17.3467 220.631 17.3733 219.965 17.08C219.191 16.7067 218.898 16.0267 219.085 15.04C219.191 14.5067 219.445 14.0133 219.845 13.56C220.378 13.08 220.951 12.8 221.565 12.72C221.725 12.72 221.805 12.7067 221.805 12.68C221.805 12.6 221.711 12.4667 221.525 12.28C221.231 12.0667 220.645 12.12 219.765 12.44C219.365 12.5733 218.898 12.8267 218.365 13.2C217.698 13.6267 216.711 14.48 215.405 15.76C214.578 16.56 213.951 17.1467 213.525 17.52C213.391 17.6267 213.365 17.6933 213.445 17.72C213.525 17.72 213.698 17.7467 213.965 17.8C214.898 18.04 215.591 18.28 216.045 18.52C217.138 19.0267 217.898 19.72 218.325 20.6C218.511 20.9733 218.605 21.4667 218.605 22.08C218.605 22.5067 218.565 22.9067 218.485 23.28C218.325 23.9467 218.245 24.56 218.245 25.12C218.245 25.7333 218.338 26.1333 218.525 26.32C218.738 26.5333 219.085 26.5867 219.565 26.48C219.858 26.4 220.125 26.2267 220.365 25.96C220.925 25.4 221.458 24.1467 221.965 22.2C222.018 22.0133 222.218 21.9067 222.565 21.88C222.645 21.88 222.778 21.88 222.965 21.88C223.471 21.88 223.751 21.9067 223.805 21.96C223.965 22.0667 223.965 22.3867 223.805 22.92C223.405 24.36 222.831 25.5733 222.085 26.56C221.418 27.4933 220.631 28.08 219.725 28.32C219.538 28.3733 219.218 28.4 218.765 28.4C218.285 28.4 217.938 28.3733 217.725 28.32C217.165 28.16 216.711 27.96 216.365 27.72C215.405 27.08 214.845 26.1067 214.685 24.8C214.631 24.2667 214.671 23.7467 214.805 23.24C214.938 22.5467 214.938 22 214.805 21.6C214.431 20.56 213.378 19.8533 211.645 19.48L211.165 19.4L210.205 23.16C209.538 25.7467 209.178 27.0933 209.125 27.2C208.858 27.76 208.405 28.1467 207.765 28.36C207.338 28.4667 206.911 28.4533 206.485 28.32C206.165 28.1867 205.911 27.9467 205.725 27.6C205.591 27.3867 205.565 27.1067 205.645 26.76C205.725 26.2267 206.645 22.4267 208.405 15.36C210.378 7.52 211.311 3.48 211.205 3.24C211.018 3.05333 210.445 2.94666 209.485 2.92C208.845 2.92 208.485 2.82666 208.405 2.64C208.351 2.56 208.391 2.25333 208.525 1.72C208.658 1.16 208.765 0.85333 208.845 0.799998C208.925 0.719997 209.005 0.679997 209.085 0.679997L212.165 0.479997Z" fill="url(#paint10_linear_1_4)"/>
<path d="M236.304 10.36H237.904C239.824 10.6533 241.051 11.5333 241.584 13C241.744 13.5333 241.771 14.08 241.664 14.64C241.211 16.6933 239.731 18.04 237.224 18.68C236.104 19 234.251 19.2 231.664 19.28H230.384L230.304 19.52C230.197 19.9733 230.064 20.6667 229.904 21.6C229.797 22.4533 229.797 23.2133 229.904 23.88C230.064 24.6533 230.397 25.28 230.904 25.76C231.517 26.32 232.344 26.5867 233.384 26.56C235.517 26.4267 237.317 25.8133 238.784 24.72C239.291 24.4 239.717 24.0133 240.064 23.56C240.357 23.2133 240.597 23.1067 240.784 23.24C240.864 23.2933 241.011 23.4267 241.224 23.64C241.597 24.04 241.771 24.2933 241.744 24.4C241.717 24.5333 241.424 24.88 240.864 25.44C239.184 27.04 237.024 28 234.384 28.32C233.477 28.48 232.677 28.5067 231.984 28.4C229.477 28.1333 227.731 26.8667 226.744 24.6C226.557 24.2 226.411 23.7733 226.304 23.32C226.117 22.6533 226.024 21.8133 226.024 20.8C226.051 19.2267 226.397 17.7867 227.064 16.48C227.544 15.4933 228.197 14.5867 229.024 13.76C229.424 13.3867 229.917 12.9733 230.504 12.52C232.131 11.32 233.891 10.6133 235.784 10.4C235.917 10.3733 236.091 10.36 236.304 10.36ZM237.384 12.24C236.397 12.0533 235.357 12.24 234.264 12.8C232.691 13.52 231.597 14.9067 230.984 16.96C230.931 17.1733 230.891 17.2933 230.864 17.32C230.864 17.3733 231.304 17.4 232.184 17.4C233.917 17.3733 235.224 17.2533 236.104 17.04C237.917 16.6667 238.984 15.8933 239.304 14.72C239.411 14.2933 239.397 13.92 239.264 13.6C239.024 12.9067 238.397 12.4533 237.384 12.24Z" fill="url(#paint11_linear_1_4)"/>
<path d="M251.897 3C252.297 2.89333 252.67 2.92 253.017 3.08C253.417 3.21333 253.684 3.46666 253.817 3.84C253.924 4.16 253.844 4.82666 253.577 5.84C253.497 6.18666 253.35 6.78666 253.137 7.64C252.657 9.64 252.404 10.6533 252.377 10.68C252.377 10.7333 253.017 10.76 254.297 10.76H256.217L256.337 10.88C256.497 10.9867 256.497 11.3333 256.337 11.92C256.257 12.32 256.177 12.6 256.097 12.76C256.017 12.8933 255.75 12.9733 255.297 13C255.084 13 254.59 13 253.817 13H251.817L251.777 13.16C251.777 13.24 251.31 15.0933 250.377 18.72C249.524 22.1333 249.057 24.08 248.977 24.56C248.87 25.1467 248.884 25.6267 249.017 26C249.204 26.4533 249.644 26.6267 250.337 26.52C251.484 26.28 252.51 25.4667 253.417 24.08C253.87 23.3867 254.164 22.8267 254.297 22.4C254.43 22.1067 254.577 21.9467 254.737 21.92C254.844 21.8933 255.07 21.88 255.417 21.88C255.924 21.88 256.217 21.9067 256.297 21.96C256.457 22.12 256.417 22.44 256.177 22.92C255.51 24.36 254.684 25.56 253.697 26.52C253.137 27.08 252.577 27.4933 252.017 27.76C251.59 28 251.124 28.1867 250.617 28.32C250.377 28.3733 250.004 28.4 249.497 28.4C248.99 28.4 248.59 28.36 248.297 28.28C247.337 28.04 246.59 27.5867 246.057 26.92C245.71 26.44 245.497 25.9467 245.417 25.44C245.364 25.2267 245.337 24.92 245.337 24.52L245.377 23.96L246.737 18.52C247.644 14.9467 248.097 13.12 248.097 13.04C248.097 13.0133 247.457 13 246.177 13C244.844 13 244.124 12.9067 244.017 12.72C243.964 12.64 243.99 12.3467 244.097 11.84C244.257 11.3067 244.35 11.0267 244.377 11C244.457 10.8667 244.724 10.7867 245.177 10.76C245.39 10.76 245.884 10.76 246.657 10.76H248.697L249.457 7.6C250.017 5.33333 250.39 4.09333 250.577 3.88C250.63 3.82666 250.71 3.74666 250.817 3.64C251.11 3.34666 251.47 3.13333 251.897 3Z" fill="url(#paint12_linear_1_4)"/>
<defs>
<linearGradient id="paint0_linear_1_4" x1="1.38121e-06" y1="18" x2="256" y2="18" gradientUnits="userSpaceOnUse">
<stop stop-color="#FF005C"/>
<stop offset="1" stop-color="#7FDB0A"/>
</linearGradient>
<linearGradient id="paint1_linear_1_4" x1="1.38121e-06" y1="18" x2="256" y2="18" gradientUnits="userSpaceOnUse">
<stop stop-color="#FF005C"/>
<stop offset="1" stop-color="#7FDB0A"/>
</linearGradient>
<linearGradient id="paint2_linear_1_4" x1="1.38121e-06" y1="18" x2="256" y2="18" gradientUnits="userSpaceOnUse">
<stop stop-color="#FF005C"/>
<stop offset="1" stop-color="#7FDB0A"/>
</linearGradient>
<linearGradient id="paint3_linear_1_4" x1="1.38121e-06" y1="18" x2="256" y2="18" gradientUnits="userSpaceOnUse">
<stop stop-color="#FF005C"/>
<stop offset="1" stop-color="#7FDB0A"/>
</linearGradient>
<linearGradient id="paint4_linear_1_4" x1="1.38121e-06" y1="18" x2="256" y2="18" gradientUnits="userSpaceOnUse">
<stop stop-color="#FF005C"/>
<stop offset="1" stop-color="#7FDB0A"/>
</linearGradient>
<linearGradient id="paint5_linear_1_4" x1="1.38121e-06" y1="18" x2="256" y2="18" gradientUnits="userSpaceOnUse">
<stop stop-color="#FF005C"/>
<stop offset="1" stop-color="#7FDB0A"/>
</linearGradient>
<linearGradient id="paint6_linear_1_4" x1="1.38121e-06" y1="18" x2="256" y2="18" gradientUnits="userSpaceOnUse">
<stop stop-color="#FF005C"/>
<stop offset="1" stop-color="#7FDB0A"/>
</linearGradient>
<linearGradient id="paint7_linear_1_4" x1="1.38121e-06" y1="18" x2="256" y2="18" gradientUnits="userSpaceOnUse">
<stop stop-color="#FF005C"/>
<stop offset="1" stop-color="#7FDB0A"/>
</linearGradient>
<linearGradient id="paint8_linear_1_4" x1="1.38121e-06" y1="18" x2="256" y2="18" gradientUnits="userSpaceOnUse">
<stop stop-color="#FF005C"/>
<stop offset="1" stop-color="#7FDB0A"/>
</linearGradient>
<linearGradient id="paint9_linear_1_4" x1="1.38121e-06" y1="18" x2="256" y2="18" gradientUnits="userSpaceOnUse">
<stop stop-color="#FF005C"/>
<stop offset="1" stop-color="#7FDB0A"/>
</linearGradient>
<linearGradient id="paint10_linear_1_4" x1="1.38121e-06" y1="18" x2="256" y2="18" gradientUnits="userSpaceOnUse">
<stop stop-color="#FF005C"/>
<stop offset="1" stop-color="#7FDB0A"/>
</linearGradient>
<linearGradient id="paint11_linear_1_4" x1="1.38121e-06" y1="18" x2="256" y2="18" gradientUnits="userSpaceOnUse">
<stop stop-color="#FF005C"/>
<stop offset="1" stop-color="#7FDB0A"/>
</linearGradient>
<linearGradient id="paint12_linear_1_4" x1="1.38121e-06" y1="18" x2="256" y2="18" gradientUnits="userSpaceOnUse">
<stop stop-color="#FF005C"/>
<stop offset="1" stop-color="#7FDB0A"/>
</linearGradient>
</defs>
</svg>
